<?xml version="1.0" encoding="utf-8"?>
<!-- Generator: Adobe Illustrator 28.0.0, SVG Export Plug-In . SVG Version: 6.00 Build 0)  -->
<svg version="1.1" id="Layer_1" xmlns="http://www.w3.org/2000/svg" xmlns:xlink="http://www.w3.org/1999/xlink" x="0px" y="0px"
	 viewBox="0 0 512 512" style="enable-background:new 0 0 512 512;" xml:space="preserve">
<style type="text/css">
	.st0{fill:#F2C56D;}
</style>
<g>
	<path class="st0" d="M412.5,345.7c-1.5-1.5-3.9-3.6-4.5-5.6l82.8-81.1l-0.4-31.6c-2,1.2-3.7,3-5.4,4.6l-7.4,6.9l-26.3,24.5
		l-22.1,21l-0.5-144.6c-7.6,6.4-14.7,13.5-21.9,20.4l-4.3,4c-0.8,0.7-1.9,1.5-2.5,2.4l-0.1,22.4L271.7,57.5V44.2
		c0-0.8,0.2-2.7,0-3.4c-0.1-0.3-0.8-1-1-1.2l-3.4-3.9l-11.4-13.8l-9,10.9c-1.8,2.1-3.7,4.2-5.3,6.4c-0.5,0.7-1.3,1.6-1.6,2.3
		c-0.3,0.7-0.1,2.5-0.1,3.2l0.1,10.4c0,1.3,0.3,3,0,4.3c-0.1,0.3-0.3,0.7-0.5,1c-1,1.4-2.5,2.7-3.8,4l-7.4,7.2L194,106.1l-57.9,59
		l-16.4,16.8c-2.4,2.4-4.9,5.2-7.7,7.2l-0.2-23l-0.3-0.2c-3.7-2.6-7.1-6.2-10.5-9.3l-18.3-16.7l-1,143.1l-20.5-19.4l-27.1-25.1
		l-7.6-6.8c-1.6-1.4-3.1-3-4.9-4.2l-0.3,32.1l82.3,81c-3.5,4-7.6,7.5-11.3,11.2l-14.4,14.1c-1.3,1.2-8.5,7.2-8.8,8.1l22.4,20.7
		l112.5-111.4c3.4,2.8,6.5,6.1,9.7,9.2l15.1,14.8c3.9,3.9,7.6,7.9,12,11.2l-0.2,155.5l15.7,16c1.7-2,3.2-4,5-5.9l7.6-7.6
		c0.8-0.8,2.1-1.8,2.6-2.7c0.3-0.6,0.1-6.1,0.1-7.2l-0.1-27.3l0.4-93.6l0.1-20.9v-4.2c0-0.4-0.1-1.3,0-1.6c0.1-0.4,7.7-7.3,8.8-8.4
		l26.3-27l0.2,0.2c3.2,3.6,6.9,7,10.3,10.3l16.8,16.2l43.9,42.8l27.6,27.1c4.7,4.8,9.6,9.3,13.8,14.5l22.7-20.5l-18.5-17.5
		L412.5,345.7z M111.2,226.5c2.9-2.1,5.6-5.1,8.1-7.7l22.5-23.1l19-19.5l54.4-55.2l15.8-16.1c2.9-3.1,5.7-6.5,8.8-9.4l0.1,1.3v35.6
		v8.7c0,0.7,0.2,2,0,2.6c-0.1,0.5-1.7,1.9-2.1,2.3l-11.2,10.8l-58,58.5L129.8,254l-18.6,18.7L111.2,226.5z M240.1,214.5v43l-0.2,25
		l-35.5-34c-2.9,2.1-5.6,4.9-8.2,7.4l-16.1,15.9L130,321l-17.3,17.1l-0.4-30.2l26.5-26.8l25.4-26.1l31.9-32l28.5-29
		c4.9-5,9.8-10.9,15.4-15.2c0.4,3.6,0.1,7.5,0.1,11.2V214.5z M399.2,309.8v4l-0.2,23.8c-3-2.4-5.7-5.3-8.4-8.1l-9.2-9.2l-74.5-72
		l-35.6,34.9l0.2-104.3l126.2,127.9c0.4,0.5,1.3,1.2,1.6,1.8C399.4,308.7,399.2,309.7,399.2,309.8z M399.9,235.6l-0.1,36.3
		L271.5,143.8c-0.2-1.9-0.1-3.9-0.1-5.8v-10.1l0.1-32.9l114.6,117.3l11,11.6c0.7,0.7,2.3,2.1,2.7,3c0.2,0.4,0.1,1.5,0.1,2
		L399.9,235.6z"/>
</g>
</svg>
