<?xml version="1.0" encoding="utf-8"?>
<!-- Generator: Adobe Illustrator 28.0.0, SVG Export Plug-In . SVG Version: 6.00 Build 0)  -->
<svg version="1.1" id="Layer_1" xmlns="http://www.w3.org/2000/svg" xmlns:xlink="http://www.w3.org/1999/xlink" x="0px" y="0px"
	 viewBox="-223 25 512 512" style="enable-background:new -223 25 512 512;" xml:space="preserve">
<style type="text/css">
	.st0{fill:#A0A7AB;}
	.st1{fill:#828E9B;}
	.st2{fill:#231F20;}
</style>
<g>
	<path class="st0" d="M270,25c2.1,0,18.6-0.1,18.9,0.2l0.1,0.3l-39.1,0c1.5-0.5,3.6-0.2,5.2-0.2l10.7,0C267,25.2,268.9,25.5,270,25z
		"/>
	<path class="st1" d="M81.5,25H270c-1.1,0.5-3,0.3-4.2,0.3l-10.7,0c-1.6,0-3.7-0.3-5.2,0.2c-1.7,0.3-3.8,0.1-5.5,0.1l-11.8,0
		l-42.3,0l-81.6-0.1l-47.8,0.1l0,0c0.6-0.5,3.5-0.3,4.5-0.3l10.1,0C77.4,25.1,79.5,25.2,81.5,25z"/>
	<path class="st0" d="M-223,25.5l0.1-0.3c0.1-0.1,0.2-0.2,0.4-0.2c0.5-0.2,2,0,2.6,0H81.5c-2,0.3-4.1,0.1-6.2,0.1l-10.1,0
		c-1,0-3.8-0.3-4.5,0.3l0,0L-223,25.5z"/>
	<path class="st2" d="M189.5,370.7c-1.5-1.5-3.9-3.6-4.5-5.6l82.8-81.1l-0.4-31.6c-2,1.2-3.7,3-5.4,4.6l-7.4,6.9l-26.3,24.5
		l-22.1,21l-0.5-144.6c-7.6,6.4-14.7,13.5-21.9,20.4l-4.3,4c-0.8,0.7-1.9,1.5-2.5,2.4l-0.1,22.4L48.7,82.5V69.2c0-0.8,0.2-2.7,0-3.4
		c-0.1-0.3-0.8-1-1-1.2l-3.4-3.9L32.9,46.9l-9,10.9c-1.8,2.1-3.7,4.2-5.3,6.4c-0.5,0.7-1.3,1.6-1.6,2.3c-0.3,0.7-0.1,2.5-0.1,3.2
		L17,80.1c0,1.3,0.3,3,0,4.3c-0.1,0.3-0.3,0.7-0.5,1c-1,1.4-2.5,2.7-3.8,4l-7.4,7.2l-34.3,34.5l-57.9,59l-16.4,16.8
		c-2.4,2.4-4.9,5.2-7.7,7.2l-0.2-23l-0.3-0.2c-3.7-2.6-7.1-6.2-10.5-9.3l-18.3-16.7l-1,143.1l-20.5-19.4l-27.1-25.1l-7.6-6.8
		c-1.6-1.4-3.1-3-4.9-4.2l-0.3,32.1l82.3,81c-3.5,4-7.6,7.5-11.3,11.2l-14.4,14.1c-1.3,1.2-8.5,7.2-8.8,8.1l22.4,20.7l112.5-111.4
		c3.4,2.8,6.5,6.1,9.7,9.2l15.1,14.8c3.9,3.9,7.6,7.9,12,11.2l-0.2,155.5l15.7,16c1.7-2,3.2-4,5-5.9l7.6-7.6
		c0.8-0.8,2.1-1.8,2.6-2.7c0.3-0.6,0.1-6.1,0.1-7.2l-0.1-27.3l0.4-93.6l0.1-20.9l0-4.2c0-0.4-0.1-1.3,0-1.6c0.1-0.4,7.7-7.3,8.8-8.4
		l26.3-27l0.2,0.2c3.2,3.6,6.9,7,10.3,10.3l16.8,16.2l43.9,42.8l27.6,27.1c4.7,4.8,9.6,9.3,13.8,14.5l22.7-20.5l-18.5-17.5
		L189.5,370.7z M-111.8,251.5c2.9-2.1,5.6-5.1,8.1-7.7l22.5-23.1l19-19.5l54.4-55.2l15.8-16.1c2.9-3.1,5.7-6.5,8.8-9.4l0.1,1.3
		l0,35.6l0,8.7c0,0.7,0.2,2,0,2.6c-0.1,0.5-1.7,1.9-2.1,2.3L3.6,181.8l-58,58.5l-38.8,38.7l-18.6,18.7L-111.8,251.5z M17.1,239.5
		l0,43l-0.2,25l-35.5-34c-2.9,2.1-5.6,4.9-8.2,7.4l-16.1,15.9L-93,346l-17.3,17.1l-0.4-30.2l26.5-26.8l25.4-26.1l31.9-32L1.6,219
		c4.9-5,9.8-10.9,15.4-15.2c0.4,3.6,0.1,7.5,0.1,11.2L17.1,239.5z M176.3,334.8l0,4l-0.2,23.8c-3-2.4-5.7-5.3-8.4-8.1l-9.2-9.2
		l-74.5-72l-35.6,34.9l0.2-104.3l126.2,127.9c0.4,0.5,1.3,1.2,1.6,1.8C176.4,333.7,176.3,334.7,176.3,334.8z M176.9,260.6l-0.1,36.3
		L48.5,168.8c-0.2-1.9-0.1-3.9-0.1-5.8l0-10.1l0.1-32.9l114.6,117.3l11,11.6c0.7,0.7,2.3,2.1,2.7,3c0.2,0.4,0.1,1.5,0.1,2
		L176.9,260.6z"/>
</g>
</svg>
